<?xml version="1.0" encoding="UTF-8"?>
<svg width="752pt" height="752pt" version="1.1" viewBox="0 0 752 752" xmlns="http://www.w3.org/2000/svg">
 <g>
  <path d="m247.74 465.49c0 7.082 5.7422 12.828 12.828 12.828h25.555c7.043-0.054687 12.727-5.7812 12.727-12.828v-128.26h-51.109z"/>
  <path d="m479.6 388.83c6.8438-5.9922 10.973-14.496 11.445-23.582 0-21.113-16.676-37.492-35.125-49.332-16.887-10.355-31.98-23.383-44.695-38.574l-3.2578-4.0469-3.2578 4.0469h0.003907c-12.73 15.121-27.82 28.078-44.691 38.379-18.449 11.641-35.125 28.02-35.125 49.332 0.46875 9.1836 4.6758 17.773 11.641 23.777z"/>
  <path d="m491.04 401.55h-166.15c-7.0859 0-12.828 5.7422-12.828 12.828v51.105c0 7.082 5.7422 12.828 12.828 12.828h12.727v-25.555c-0.31641-3.5859 0.89062-7.1367 3.3203-9.7891 2.4297-2.6523 5.8594-4.1602 9.457-4.1602 3.5977 0 7.0273 1.5078 9.457 4.1602 2.4297 2.6523 3.6367 6.2031 3.3203 9.7891v25.555h25.652v-28.812c0.97266-12.238 8.2148-23.105 19.141-28.711 10.926 5.6055 18.168 16.473 19.141 28.711v28.809h25.652v-25.551c-0.31641-3.5859 0.88672-7.1367 3.3164-9.7891s5.8633-4.1602 9.4609-4.1602c3.5977 0 7.0273 1.5078 9.457 4.1602 2.4297 2.6523 3.6328 6.2031 3.3203 9.7891v25.555h12.727c7.082 0 12.824-5.7461 12.824-12.828v-51.105c0-3.4023-1.3516-6.6641-3.7539-9.0703-2.4062-2.4062-5.668-3.7578-9.0703-3.7578z"/>
  <path d="m273.69 273.69s-25.949 12.828-25.949 38.379v12.824h51.105v-12.824c0.39844-25.551-25.156-38.379-25.156-38.379z"/>
 </g>
</svg>
